# xmcd CD database file
#
# Track frame offsets:
#	150
#	14580
#	28260
#	43282
#	57615
#	78572
#	101267
#	118005
#	134780
#	159437
#	192420
#	205747
#	252865
#
# Disc length: 4011 seconds
#
# Revision: 1
# Processed by: cddbd v1.5.1PL0 Copyright (c) Steve Scherf et al.
# Submitted via: CDex 1.51
#
DISCID=bf0fa90d
DTITLE=Album Jazz - L'album jazz più bello del mondo 1
DYEAR=1900
DGENRE=Jazz
TTITLE0=We have all the time in the world (L.Armstrong)
TTITLE1=Fravelin Light (Billie Holliday)
TTITLE2=Smile (Dexter Gordon)
TTITLE3=Venus de Milo (Miles Davis)
TTITLE4=Come Toghether (Cassandra Wilsin)
TTITLE5=La fiesta (Stanley Turrentine)
TTITLE6=Let's get lost (Chet Baker)
TTITLE7=Jersey Girl (Holly Cole)
TTITLE8=Cantalupe Island (Herbie Hancock)
TTITLE9=Say the broyher name (Pat Metheny)
TTITLE10=Satin doll (Duke Ellington)
TTITLE11=Blue Bossa (Jou Henderson)
TTITLE12=Blue Train (John Coltrane)
EXTD=
EXTT0=
EXTT1=
EXTT2=
EXTT3=
EXTT4=
EXTT5=
EXTT6=
EXTT7=
EXTT8=
EXTT9=
EXTT10=
EXTT11=
EXTT12=
PLAYORDER=
